<svg 
 xmlns="http://www.w3.org/2000/svg"
 xmlns:xlink="http://www.w3.org/1999/xlink"
 width="21px" height="17px">
<path fill-rule="evenodd"  fill="rgb(255, 255, 255)"
 d="M16.624,16.990 L16.624,15.673 L19.506,15.673 L19.506,12.954 L20.992,12.954 L20.992,16.990 L16.624,16.990 ZM19.506,1.312 L16.624,1.312 L16.624,0.3 L20.992,0.3 L20.992,4.31 L19.506,4.31 L19.506,1.312 ZM1.492,4.31 L0.6,4.31 L0.6,0.3 L4.374,0.3 L4.374,1.312 L1.492,1.312 L1.492,4.31 ZM2.888,2.714 L18.110,2.714 L18.110,14.271 L2.888,14.271 L2.888,2.714 ZM4.374,12.954 L16.624,12.954 L16.624,4.31 L4.374,4.31 L4.374,12.954 ZM5.815,5.433 L15.228,5.433 L15.228,11.552 L5.815,11.552 L5.815,5.433 ZM1.492,15.673 L4.374,15.673 L4.374,16.990 L0.6,16.990 L0.6,12.954 L1.492,12.954 L1.492,15.673 Z"/>
</svg>