<svg 
 xmlns="http://www.w3.org/2000/svg"
 xmlns:xlink="http://www.w3.org/1999/xlink"
 width="24px" height="23px">
<path fill-rule="evenodd"  fill="rgb(42, 172, 200)"
 d="M16.668,16.678 L8.999,22.999 L10.725,17.309 C4.697,16.849 0.0,13.162 0.0,8.679 C0.0,3.886 5.372,0.0 11.999,0.0 C18.627,0.0 23.999,3.886 23.999,8.679 C23.999,12.276 20.976,15.361 16.668,16.678 ZM11.999,1.813 C6.756,1.813 2.505,4.887 2.505,8.680 C2.505,12.473 6.756,15.547 11.999,15.547 C17.243,15.547 21.494,12.473 21.494,8.680 C21.494,4.887 17.243,1.813 11.999,1.813 ZM7.499,8.161 L16.499,8.161 L16.499,9.645 L7.499,9.645 L7.499,8.161 ZM7.499,5.193 L16.499,5.193 L16.499,6.677 L7.499,6.677 L7.499,5.193 ZM14.259,12.612 L9.759,12.612 L9.759,11.128 L14.259,11.128 L14.259,12.612 Z"/>
</svg>