<svg 
 xmlns="http://www.w3.org/2000/svg"
 xmlns:xlink="http://www.w3.org/1999/xlink"
 width="24px" height="20px">
<path fill-rule="evenodd"  fill="rgb(42, 172, 200)"
 d="M17.824,14.7 L16.267,14.7 L13.116,11.154 C15.11,10.527 16.131,9.567 16.662,8.991 L16.662,8.369 C16.8,8.487 14.533,7.977 15.147,7.675 C15.462,7.521 15.640,7.227 15.745,6.951 C15.689,6.776 15.651,6.592 15.641,6.399 L15.626,6.128 C15.589,6.141 15.551,6.152 15.510,6.152 C15.297,6.152 15.124,5.977 15.124,5.760 L15.124,4.974 C15.124,4.757 15.297,4.581 15.510,4.581 C15.521,4.581 15.531,4.587 15.542,4.588 L15.514,4.80 C15.438,2.679 16.471,1.473 17.826,1.473 C19.181,1.473 20.213,2.679 20.135,4.80 L20.107,4.588 C20.118,4.587 20.128,4.581 20.139,4.581 C20.352,4.581 20.525,4.757 20.525,4.974 L20.525,5.760 C20.525,5.977 20.352,6.152 20.139,6.152 C20.97,6.152 20.59,6.141 20.22,6.128 L20.7,6.399 C19.994,6.618 19.942,6.823 19.871,7.19 C19.980,7.275 20.153,7.533 20.442,7.675 C21.37,7.968 19.666,8.456 18.986,8.377 L18.986,8.991 C19.547,9.598 20.750,10.637 22.839,11.258 C22.839,11.258 23.996,12.174 23.996,13.90 L23.996,14.7 L17.824,14.7 ZM13.954,7.459 C13.886,7.459 13.823,7.440 13.761,7.420 L13.737,7.852 C13.669,9.31 13.8,10.36 12.59,10.620 L12.59,11.987 C12.981,12.956 14.959,14.613 18.395,15.603 C18.395,15.603 20.298,17.65 20.298,18.526 L20.298,19.988 L10.148,19.988 L0.0,19.988 L0.0,18.526 C0.0,17.65 1.902,15.603 1.902,15.603 C5.338,14.613 7.316,12.956 8.238,11.987 L8.238,10.623 C7.287,10.39 6.624,9.33 6.558,7.852 L6.534,7.420 C6.472,7.440 6.410,7.459 6.343,7.459 C5.992,7.459 5.708,7.178 5.708,6.832 L5.708,5.579 C5.708,5.233 5.992,4.953 6.343,4.953 C6.361,4.953 6.377,4.962 6.396,4.963 L6.350,4.153 C6.224,1.918 7.923,0.5 10.151,0.5 C12.380,0.5 14.76,1.918 13.948,4.153 L13.902,4.963 C13.920,4.961 13.936,4.953 13.954,4.953 C14.305,4.953 14.589,5.233 14.589,5.579 L14.589,6.832 C14.589,7.178 14.305,7.459 13.954,7.459 Z"/>
</svg>