<svg 
 xmlns="http://www.w3.org/2000/svg"
 xmlns:xlink="http://www.w3.org/1999/xlink"
 width="20px" height="26px">
<path fill-rule="evenodd"  fill="rgb(255, 255, 255)"
 d="M19.361,6.808 L15.861,12.870 C15.308,13.826 14.85,14.154 13.129,13.602 L12.263,13.102 L13.263,11.370 L13.263,11.370 C13.741,11.646 14.352,11.482 14.628,11.4 L17.128,6.674 C17.405,6.196 17.241,5.584 16.763,5.308 L13.298,3.308 C12.820,3.32 12.209,3.195 11.932,3.674 L9.432,8.4 C9.156,8.482 9.320,9.94 9.798,9.370 L8.798,11.102 L7.932,10.602 C6.976,10.50 6.648,8.826 7.200,7.870 L10.700,1.808 C11.253,0.851 12.476,0.523 13.432,1.76 L18.629,4.76 C19.585,4.628 19.913,5.851 19.361,6.808 ZM7.530,17.298 C7.52,17.22 6.888,16.410 7.165,15.932 L11.164,9.4 C11.440,8.526 12.52,8.362 12.530,8.638 C13.9,8.914 13.173,9.526 12.896,10.4 L8.897,16.932 C8.620,17.410 8.9,17.574 7.530,17.298 ZM6.798,14.566 L6.798,14.566 C6.320,14.290 5.709,14.454 5.432,14.932 L2.932,19.262 C2.656,19.741 2.820,20.352 3.298,20.628 L6.763,22.628 C7.241,22.904 7.852,22.741 8.128,22.262 L10.629,17.932 C10.905,17.454 10.741,16.842 10.263,16.566 L10.262,16.566 L11.262,14.834 L12.129,15.334 C13.85,15.886 13.413,17.109 12.861,18.66 L9.361,24.128 C8.808,25.85 7.585,25.413 6.629,24.860 L1.432,21.860 C0.476,21.308 0.148,20.85 0.700,19.128 L4.200,13.66 C4.753,12.109 5.976,11.782 6.932,12.334 L7.798,12.834 L6.798,14.566 Z"/>
</svg>