<svg 
 xmlns="http://www.w3.org/2000/svg"
 xmlns:xlink="http://www.w3.org/1999/xlink"
 width="35px" height="25px">
<path fill-rule="evenodd"  fill="rgb(255, 255, 255)"
 d="M17.324,24.141 C6.699,24.141 0.161,12.483 0.161,12.483 C0.161,12.483 6.761,0.824 17.324,0.824 C27.324,0.824 34.804,12.483 34.804,12.483 C34.804,12.483 27.262,24.141 17.324,24.141 ZM17.418,7.257 C14.524,7.257 12.179,9.602 12.179,12.495 C12.179,15.389 14.524,17.734 17.418,17.734 C20.311,17.734 22.656,15.389 22.656,12.495 C22.656,9.602 20.311,7.257 17.418,7.257 ZM17.449,15.92 C16.9,15.92 14.842,13.924 14.842,12.484 C14.842,11.44 16.9,9.877 17.449,9.877 C18.890,9.877 20.57,11.44 20.57,12.484 C20.57,13.924 18.890,15.92 17.449,15.92 Z"/>
</svg>